<svg xmlns="http://www.w3.org/2000/svg" version="1.0" width="344.000000pt" height="350.000000pt" viewBox="0 0 344.000000 350.000000" preserveAspectRatio="xMidYMid meet">
<metadata fill="#ffffff">
Created by potrace 1.16, written by Peter Selinger 2001-2019
</metadata>
<g transform="translate(0.000000,350.000000) scale(0.100000,-0.100000)" fill="#ffffff" stroke="none">
<path d="M1615 3465 c-517 -58 -990 -372 -1237 -820 -193 -352 -250 -740 -166 -1134 l20 -93 -30 -32 c-52 -55 -64 -89 -70 -215 -12 -251 -10 -270 26 -333 17 -32 32 -60 32 -63 0 -14 -73 -40 -128 -45 l-64 -5 38 -49 c36 -48 37 -49 25 -98 -30 -130 1 -198 103 -233 l53 -18 42 -92 c44 -95 112 -185 162 -210 43 -23 110 -19 149 8 41 27 65 66 81 132 15 58 38 87 96 121 59 35 97 44 136 33 29 -9 34 -7 58 21 14 16 32 30 40 30 8 0 30 11 48 25 23 16 39 22 50 16 47 -24 155 -69 196 -82 267 -83 502 -106 735 -70 249 37 443 107 647 232 205 126 396 317 523 524 386 627 300 1423 -210 1959 -166 174 -349 297 -580 388 -77 31 -115 43 -248 78 -59 15 -284 40 -357 39 -33 -1 -109 -7 -170 -14z m420 -89 c574 -91 1045 -514 1196 -1074 75 -279 63 -613 -32 -862 -11 -30 -24 -67 -29 -82 -23 -73 -141 -269 -226 -375 -79 -97 -220 -222 -336 -297 -27 -18 -28 -17 -35 0 -4 11 -20 41 -37 68 -26 43 -27 50 -14 60 13 10 1 33 -84 161 -131 199 -128 192 -82 161 44 -30 108 -35 152 -12 212 111 307 672 190 1126 -19 74 -83 204 -122 247 -70 78 -141 92 -217 44 -46 -29 -104 -105 -133 -176 -9 -21 -22 -43 -29 -47 -20 -13 -55 -9 -61 7 -3 8 -15 15 -26 15 -11 0 -38 11 -60 25 -22 14 -46 25 -55 25 -30 0 -6 75 27 86 13 4 18 12 15 25 -3 12 6 27 31 45 l35 27 -23 19 c-24 19 -28 57 -14 121 6 30 20 33 48 12 10 -8 23 -12 28 -9 5 3 8 54 7 112 -2 158 -32 311 -86 440 -24 58 -27 61 -44 46 -18 -16 -36 -4 -23 17 8 13 -123 4 -140 -10 -9 -7 -64 -19 -101 -21 -5 0 -17 -4 -25 -10 -12 -7 -11 -12 5 -31 11 -12 14 -19 8 -15 -19 10 -16 1 10 -42 43 -69 62 -121 49 -134 -19 -19 -14 -45 11 -52 21 -6 20 -8 -16 -30 -91 -56 -150 -134 -161 -211 -19 -133 -19 -163 3 -229 11 -36 21 -68 21 -72 0 -3 -17 4 -37 17 -30 18 -52 22 -102 21 l-63 -1 7 37 c4 20 8 87 10 147 2 120 8 150 38 208 19 36 19 41 4 73 -19 39 -50 159 -68 262 -13 75 -22 77 -33 7 -20 -123 -59 -259 -83 -286 -12 -15 -11 -21 11 -54 15 -21 31 -56 37 -79 14 -49 18 -186 6 -203 -5 -6 -4 -21 2 -32 21 -38 13 -76 -16 -88 -52 -23 -148 -109 -170 -153 -12 -23 -27 -72 -34 -107 -11 -55 -17 -67 -39 -75 -37 -14 -106 -85 -145 -149 -42 -68 -75 -171 -136 -423 -61 -257 -119 -365 -222 -417 -61 -31 -95 -23 -125 31 -32 57 -26 99 24 164 19 25 32 51 28 57 -12 20 -88 49 -130 49 l-41 0 -16 58 c-35 130 -42 199 -41 392 0 186 12 287 43 380 4 14 14 43 21 65 7 22 28 78 48 125 200 473 653 816 1162 880 52 6 102 13 110 15 28 7 235 -5 325 -19z m-109 -73 c-3 -10 -7 -36 -10 -58 -4 -29 -4 -33 3 -15 13 41 42 92 48 87 6 -6 -62 -224 -77 -247 -8 -12 -10 -10 -11 10 0 23 -1 23 -9 5 -13 -29 -12 -35 5 -35 8 0 15 -4 15 -10 0 -5 -11 -10 -25 -10 -15 0 -25 5 -24 13 4 19 -13 110 -23 131 -7 13 -7 16 2 11 6 -4 0 16 -14 44 -29 56 -30 61 -16 61 5 0 16 -12 25 -27 l16 -28 -6 33 c-4 19 -2 32 4 32 15 0 23 -17 31 -74 l8 -51 1 67 c1 70 -1 67 54 77 5 0 6 -7 3 -16z m114 -43 c9 -16 6 -27 -15 -57 -33 -49 -32 -63 1 -24 35 43 48 40 41 -9 -4 -33 -3 -39 8 -30 21 17 26 -28 7 -59 -14 -22 -14 -24 -1 -14 9 7 19 10 22 6 14 -14 6 -38 -20 -61 l-28 -23 32 16 32 15 -1 -50 c0 -44 -2 -50 -21 -51 -21 0 -20 -1 3 -10 20 -8 22 -12 10 -19 -10 -7 -11 -10 -2 -10 6 0 12 -4 12 -10 0 -5 -8 -7 -17 -4 -17 5 -17 5 0 -9 9 -8 17 -28 17 -46 0 -29 -2 -31 -21 -21 -11 6 -21 17 -23 23 -4 16 -22 68 -31 91 -6 14 -5 17 3 12 8 -5 10 -1 5 10 -4 12 -8 14 -11 5 -2 -7 -14 1 -28 21 -14 18 -46 45 -72 60 -26 15 -40 28 -32 28 8 0 31 -9 50 -21 l35 -20 -38 33 -38 33 25 69 c23 62 69 146 81 146 2 0 9 -9 15 -20z m-597 -237 c6 -202 5 -233 -8 -233 -17 0 -48 67 -40 87 3 9 0 11 -7 7 -8 -5 -9 -2 -5 10 4 10 3 15 -3 11 -6 -3 -10 -4 -10 -1 0 2 -3 12 -7 22 -4 12 -3 15 5 10 7 -4 12 -1 12 9 0 9 -4 13 -10 10 -12 -7 -12 2 0 30 6 14 9 15 10 5 2 -19 19 18 19 40 0 9 -4 8 -9 -5 -16 -38 -10 2 10 59 10 31 22 83 26 117 4 33 8 58 9 57 1 -2 5 -108 8 -235z m464 -83 c12 -15 20 -30 17 -33 -3 -3 5 -10 18 -17 22 -11 22 -10 4 4 -11 9 -16 16 -10 16 14 0 74 -39 73 -47 -3 -19 2 -33 12 -33 8 0 7 6 -2 18 -12 16 -12 16 5 0 10 -9 20 -28 21 -42 2 -13 6 -29 9 -35 4 -5 -5 -26 -19 -46 -31 -47 -39 -90 -32 -171 l6 -63 -49 -30 c-43 -27 -160 -81 -174 -81 -3 0 3 19 13 43 36 84 54 163 54 235 l0 73 31 -7 c47 -10 58 -10 63 3 6 16 -55 59 -94 68 -29 6 -34 4 -43 -20 -5 -14 -10 -42 -10 -61 0 -19 -5 -34 -11 -34 -11 0 -10 33 6 125 5 25 4 26 -4 9 -5 -12 -22 -25 -38 -28 -43 -11 -73 -34 -67 -51 4 -8 14 -15 24 -15 16 0 17 -4 8 -37 -14 -49 -3 -198 17 -247 25 -60 -5 -40 -38 25 -46 91 -56 200 -27 294 5 17 12 41 14 55 5 25 76 105 130 148 l29 22 34 -37 33 -38 -25 39 c-14 21 -25 44 -24 50 0 6 6 3 12 -8 7 -10 22 -31 34 -46z m478 -453 c-64 -67 -97 -146 -137 -332 -18 -85 -22 -132 -22 -310 0 -178 4 -226 23 -316 36 -176 86 -290 149 -346 14 -13 19 -23 12 -23 -22 0 -83 73 -113 134 -70 142 -97 295 -97 542 0 321 56 540 167 651 56 56 72 56 18 0z m156 2 c171 -122 227 -761 98 -1134 -31 -92 -110 -185 -157 -185 -56 0 -117 68 -157 175 -58 153 -69 230 -69 495 -1 204 2 258 18 325 40 174 76 259 133 313 41 38 90 43 134 11z m-761 -195 c24 -21 62 -56 83 -76 21 -21 44 -38 52 -38 21 0 18 -27 -5 -50 -30 -30 -135 -25 -123 6 7 20 -24 29 -50 15 -19 -10 -30 -8 -70 14 -58 33 -75 59 -53 84 9 10 16 32 16 50 0 21 9 41 26 58 l25 25 27 -24 c15 -14 47 -42 72 -64z m-381 -78 l-1 -154 -41 -15 c-23 -8 -61 -17 -84 -20 -42 -5 -43 -5 -37 21 12 47 36 86 75 123 36 33 39 40 39 88 0 37 6 61 21 82 11 16 22 29 25 29 2 0 4 -69 3 -154z m779 50 c5 -6 7 -31 3 -56 -6 -40 -7 -42 -15 -20 l-8 25 -9 -31 c-9 -33 -80 -104 -103 -104 -7 0 -25 9 -40 21 -28 22 -36 69 -12 69 7 0 41 27 75 59 61 59 86 67 109 37z m-473 -140 c33 -10 69 -22 80 -27 18 -7 17 -8 -6 -8 -39 -1 -142 19 -156 31 -9 7 -13 7 -13 0 0 -12 48 -27 123 -37 26 -4 47 -10 47 -14 0 -4 -11 -18 -25 -31 -14 -13 -25 -28 -25 -34 0 -5 18 9 40 32 39 41 43 42 104 42 71 0 76 -4 76 -71 0 -35 -3 -39 -25 -39 -31 0 -32 -12 -2 -25 14 -7 23 -20 25 -40 3 -27 -1 -31 -37 -42 -57 -18 -108 -16 -119 3 -6 11 -3 34 10 70 30 83 17 83 -27 -1 -64 -124 -114 -172 -116 -112 0 12 -3 16 -6 9 -7 -17 5 -62 16 -62 5 0 30 26 56 58 27 31 45 48 41 37 -4 -11 -10 -36 -12 -55 -4 -33 -4 -34 6 -8 14 33 30 39 71 28 23 -7 39 -5 59 5 22 11 30 12 37 2 30 -39 21 -72 -36 -124 -20 -19 -21 -23 -7 -19 10 4 25 1 32 -5 21 -17 17 -76 -6 -96 -24 -21 -25 -41 -5 -70 22 -32 9 -56 -27 -49 -92 18 -145 120 -104 198 13 24 12 31 -5 65 -12 23 -19 30 -19 18 0 -10 7 -27 17 -37 15 -16 15 -19 0 -36 -10 -11 -17 -40 -19 -81 -3 -71 -16 -85 -42 -46 -16 24 -16 28 2 68 14 33 16 49 9 77 -5 19 -11 30 -14 24 -2 -6 0 -21 5 -34 6 -16 4 -33 -7 -54 -8 -17 -15 -48 -14 -68 l0 -38 -68 0 c-67 0 -69 1 -69 25 0 15 7 40 16 57 9 17 14 42 11 57 -3 14 1 38 9 53 12 24 12 27 -3 30 -13 2 -11 8 11 36 29 33 28 39 -5 22 -17 -10 -19 -7 -19 19 0 17 11 42 25 59 33 40 32 48 -4 23 -51 -37 -71 -19 -29 26 22 24 13 33 -11 11 -11 -11 -13 -5 -8 33 6 45 -4 69 -27 69 -6 0 -4 -4 4 -10 26 -16 3 -22 -38 -9 -23 7 -52 8 -69 4 -17 -5 -22 -9 -13 -12 68 -19 120 -38 120 -45 0 -11 -8 -10 -61 6 -38 12 -49 12 -70 0 -24 -13 -24 -13 -2 -14 31 0 103 -30 103 -42 0 -5 -13 -7 -30 -3 -42 9 -143 -5 -115 -16 11 -4 39 -8 62 -8 23 -1 45 -5 48 -11 3 -6 -4 -10 -16 -10 -12 0 -48 -12 -81 -27 -66 -29 -99 -26 -124 13 -12 18 -11 27 13 75 24 47 36 58 88 83 44 21 74 29 111 28 l51 0 12 41 c7 23 24 59 37 80 l25 38 37 -33 c21 -19 63 -41 97 -52z m-275 -1056 c0 -507 -3 -770 -10 -770 -7 0 -10 263 -10 770 0 507 3 770 10 770 7 0 10 -263 10 -770z m-351 582 c16 -40 21 -77 21 -144 0 -114 -21 -195 -85 -325 -27 -56 -47 -100 -44 -97 3 2 31 41 62 86 46 70 105 181 156 298 9 20 10 13 6 -37 -16 -173 -91 -324 -200 -402 -25 -18 -45 -34 -45 -37 0 -13 89 47 142 95 49 45 69 74 113 164 55 114 72 123 60 34 -17 -121 -114 -230 -290 -327 -33 -18 -85 -46 -115 -63 -190 -104 -240 -142 -275 -214 -8 -17 -17 -46 -20 -65 l-5 -33 16 35 c24 51 142 163 205 193 54 25 76 28 47 4 -9 -6 -31 -32 -49 -57 -162 -216 -281 -332 -376 -366 -101 -36 -222 9 -226 84 -2 31 2 35 63 68 234 128 437 272 559 396 66 67 150 192 197 293 34 74 66 165 58 165 -2 0 -15 -21 -29 -47 -14 -27 -34 -61 -45 -78 -11 -16 -26 -42 -35 -57 -25 -45 -24 -33 2 40 40 109 63 249 63 385 l0 122 24 -30 c14 -16 34 -54 45 -83z m-154 -293 c-35 -105 -77 -199 -115 -254 -62 -90 -256 -260 -378 -332 -99 -57 -226 -97 -166 -51 70 53 124 133 139 204 4 20 -2 12 -20 -23 -14 -28 -33 -57 -42 -65 -15 -12 -15 -11 -5 9 7 12 12 41 12 65 -1 42 -1 43 -15 18 l-14 -25 -1 25 c0 14 -5 32 -10 40 -7 11 -10 -4 -10 -50 0 -49 -3 -61 -11 -48 -14 24 -39 160 -39 210 l0 40 36 -27 c145 -111 347 -77 496 82 49 53 101 145 113 202 4 19 10 29 14 22 4 -6 13 5 21 27 26 71 22 11 -5 -69z m-588 -80 l1 -62 -19 29 -19 29 3 -38 c2 -24 13 -47 30 -65 30 -31 135 -88 182 -98 l30 -7 -32 -7 c-18 -4 -56 -3 -85 2 -123 22 -204 104 -183 185 6 26 65 93 82 93 4 0 9 -28 10 -61z m1354 -11 c-6 -29 -24 -118 -41 -198 -17 -80 -35 -167 -40 -195 -18 -87 -16 -85 -75 -85 l-53 0 8 36 c5 20 13 48 18 62 6 15 24 72 40 127 83 273 84 277 116 296 17 10 32 17 34 15 2 -2 -1 -28 -7 -58z m475 1 c37 -59 42 -60 19 -6 -36 88 -10 51 70 -98 66 -123 94 -175 115 -210 39 -67 80 -147 80 -155 0 -10 -59 -44 -66 -38 -16 17 -264 531 -264 549 0 27 3 25 46 -42z m-345 -52 c3 -45 7 -66 7 -46 3 49 51 106 53 62 0 -11 3 -13 6 -5 9 24 30 11 40 -25 l11 -38 -1 35 c-1 19 2 41 7 48 4 6 14 24 22 40 12 24 14 0 14 -223 0 -137 -3 -260 -6 -272 -10 -36 -24 -16 -25 35 0 26 -4 65 -8 87 -7 36 -8 30 -15 -52 -5 -59 -13 -97 -22 -104 -12 -10 -14 7 -15 107 -2 137 -5 133 -14 -19 -7 -103 -8 -107 -31 -113 -14 -4 -28 -4 -31 -1 -3 4 0 50 6 104 7 54 17 134 22 178 6 44 13 96 16 115 3 19 3 32 -1 29 -9 -8 -86 -376 -86 -411 0 -5 -21 -8 -46 -8 l-45 0 6 48 c4 26 13 76 20 112 7 36 21 106 30 155 27 151 47 250 52 258 13 22 28 -21 34 -96z m299 44 c11 -22 38 -93 61 -158 22 -65 54 -156 70 -203 58 -166 59 -170 41 -170 -10 0 -27 -3 -38 -6 -16 -4 -23 0 -28 18 -4 13 -25 93 -47 178 -22 85 -50 189 -61 230 -31 114 -36 139 -30 144 9 10 11 8 32 -33z m-50 -20 c6 -21 14 -59 19 -82 5 -24 16 -73 24 -109 9 -36 25 -108 36 -160 12 -52 24 -103 27 -112 6 -21 -9 -23 -55 -7 -27 10 -31 16 -31 47 0 21 -5 64 -10 97 -6 33 -14 107 -20 165 -5 58 -12 126 -16 153 -8 59 10 65 26 8z m-711 -137 c-23 -49 -59 -126 -80 -172 -22 -46 -39 -87 -39 -91 0 -5 -6 -14 -14 -20 -11 -10 -21 -9 -44 3 l-30 16 85 147 c46 82 98 173 115 203 17 30 33 60 37 65 3 6 7 -6 9 -26 2 -25 -9 -61 -39 -125z m-674 -188 c-101 -119 -357 -291 -464 -312 -25 -5 -30 -2 -40 27 -14 41 -15 39 12 39 38 0 154 37 231 74 66 32 192 124 271 198 45 42 42 34 -10 -26z m281 -47 c-37 -34 -80 -81 -97 -105 -33 -48 -83 -144 -77 -149 1 -2 54 55 117 126 63 71 116 129 118 129 1 0 -21 -35 -50 -77 -30 -43 -66 -98 -81 -123 l-28 -45 47 45 c42 40 129 144 178 210 10 14 -1 -11 -23 -55 -53 -102 -140 -232 -209 -314 -29 -35 -49 -62 -43 -60 26 9 145 135 202 213 34 47 64 86 66 86 1 0 -14 -30 -35 -67 -21 -38 -53 -95 -71 -128 -81 -148 -75 -141 -145 -159 -59 -15 -130 -50 -197 -98 l-28 -19 0 29 c0 39 56 203 92 271 40 74 116 176 170 227 40 39 148 124 157 124 2 0 -26 -28 -63 -61z m1004 -180 c39 -63 112 -142 158 -171 44 -27 35 -32 -99 -54 -161 -26 -459 -21 -459 7 0 6 10 33 22 61 l22 51 70 -7 c39 -3 83 -9 99 -12 22 -5 26 -4 21 10 -11 29 16 77 47 83 16 3 29 8 29 12 0 13 40 71 49 71 5 0 23 -23 41 -51z m-1363 -286 c-2 -5 -14 -39 -27 -78 -33 -105 -67 -175 -86 -175 -17 0 -124 98 -157 144 -19 27 -19 28 -1 18 74 -38 155 -20 221 48 46 48 59 58 50 43z" fill="#ffffff"/>
<path d="M2455 2348 c-92 -72 -147 -396 -114 -673 28 -245 97 -382 175 -347 101 47 164 435 119 730 -24 155 -57 245 -105 286 -38 32 -40 32 -75 4z m83 -41 c49 -52 81 -209 87 -432 4 -137 3 -146 -9 -105 -15 49 -36 141 -62 265 -9 44 -18 87 -21 95 -4 14 -23 -25 -58 -120 -7 -19 -27 -69 -43 -110 -17 -41 -33 -82 -36 -90 -4 -8 -4 50 -1 129 7 180 38 320 83 374 20 23 34 22 60 -6z m28 -442 c14 -66 30 -140 36 -165 23 -108 -27 -324 -80 -345 -41 -16 -78 49 -107 187 -16 80 -17 91 -3 130 9 24 30 88 46 143 71 234 66 219 74 194 4 -13 19 -78 34 -144z" fill="#ffffff"/>
</g>
</svg>